#tb 0: 1/25
#media_type 0: video
#codec_id 0: rawvideo
#dimensions 0: 720x576
#sar 0: 16/15
0,          9,          9,        1,   622080, 0xb3b66c5c
0,         10,         10,        1,   622080, 0xc6568bd7
0,         11,         11,        1,   622080, 0xa5b543c3
0,         12,         12,        1,   622080, 0x4095ac51
0,         13,         13,        1,   622080, 0xccd8c1d9
0,         14,         14,        1,   622080, 0x84a88f22
0,         15,         15,        1,   622080, 0x7273c26b
0,         16,         16,        1,   622080, 0xac188c41
0,         17,         17,        1,   622080, 0xf32f6fb4
0,         18,         18,        1,   622080, 0xd696ccce
0,         19,         19,        1,   622080, 0x9778a418
0,         20,         20,        1,   622080, 0xf2b5be2e
0,         21,         21,        1,   622080, 0x653ee12a
0,         22,         22,        1,   622080, 0xe7fce188
0,         23,         23,        1,   622080, 0x6e9f1deb
0,         24,         24,        1,   622080, 0x33090aac
0,         25,         25,        1,   622080, 0x840a57f1
0,         26,         26,        1,   622080, 0x635e430a
0,         27,         27,        1,   622080, 0x52f98809
0,         28,         28,        1,   622080, 0xc567b6a5
0,         29,         29,        1,   622080, 0x4134f583
0,         30,         30,        1,   622080, 0xd02a73bc
0,         31,         31,        1,   622080, 0x763085d6
0,         32,         32,        1,   622080, 0x77fdc7a6
0,         33,         33,        1,   622080, 0x77f71b9f
0,         34,         34,        1,   622080, 0x71c91244
0,         35,         35,        1,   622080, 0xc7b86da5
0,         36,         36,        1,   622080, 0x1edf8890
0,         37,         37,        1,   622080, 0x03c82bec
0,         38,         38,        1,   622080, 0x148b6a04
